<svg width="595" height="310" viewBox="0 0 595 310" fill="none" xmlns="http://www.w3.org/2000/svg">
<path d="M532.73 0H62.03C27.82 0 0 27.83 0 62.03V111.49L12.41 111.1C12.59 111.1 12.77 111.1 12.95 111.1C36.99 111.1 56.56 130.67 56.56 154.72C56.56 178.77 37 198.34 12.95 198.34C12.77 198.34 12.6 198.34 12.43 198.34L0 197.93V247.4C0 281.61 27.83 309.43 62.03 309.43H168.2H211.69C245.9 309.43 273.73 281.61 273.73 247.4V169.33H302.85L261.7 87.03L220.55 169.33H249.67V247.4C249.67 268.33 232.64 285.37 211.7 285.37H168.21H62.04C41.11 285.37 24.07 268.34 24.07 247.4V221.5C56.12 216.18 80.63 188.26 80.63 154.73C80.63 121.2 56.12 93.28 24.07 87.96V62.05C24.07 41.12 41.1 24.08 62.04 24.08H386.47V44.32H427.47V24.08H532.74C553.67 24.08 570.71 41.11 570.71 62.05V88.12C539.12 93.81 515.07 121.52 515.07 154.73C515.07 187.94 539.12 215.65 570.71 221.34V247.4C570.71 268.33 553.68 285.37 532.74 285.37H427.47V266.05H386.47V285.37H302.86V309.44H532.74C566.95 309.44 594.77 281.61 594.77 247.41V198.36H582.74C558.7 198.36 539.13 178.79 539.13 154.74C539.13 130.69 558.69 111.12 582.74 111.12H594.77V62.06C594.77 27.85 566.94 0.0299683 532.74 0.0299683L532.73 0Z" fill="white"/>
<path d="M427.46 117.24H386.46V143.5H427.46V117.24Z" fill="white"/>
<path d="M427.46 166.84H386.46V193.1H427.46V166.84Z" fill="white"/>
<path d="M427.46 216.43H386.46V242.69H427.46V216.43Z" fill="white"/>
<path d="M427.46 67.6504H386.46V93.9103H427.46V67.6504Z" fill="white"/>
</svg>
